<?xml version="1.0" standalone="no"?>
<!DOCTYPE svg PUBLIC "-//W3C//DTD SVG 20010904//EN"
 "http://www.w3.org/TR/2001/REC-SVG-20010904/DTD/svg10.dtd">
<svg version="1.0" xmlns="http://www.w3.org/2000/svg"
 width="96.000000pt" height="96.000000pt" viewBox="0 0 96.000000 96.000000"
 preserveAspectRatio="xMidYMid meet">
<metadata>
Created by potrace 1.14, written by Peter Selinger 2001-2017
</metadata>
<g transform="translate(0.000000,96.000000) scale(0.100000,-0.100000)"
fill="#000000" stroke="none">
<path d="M120 530 l0 -210 150 0 150 0 0 -30 0 -30 -68 0 c-63 0 -92 -10 -92
-32 0 -4 99 -8 220 -8 121 0 220 4 220 8 0 22 -29 32 -92 32 l-68 0 0 30 0 30
150 0 150 0 0 210 0 210 -360 0 -360 0 0 -210z"/>
</g>
</svg>
