<svg width="168" height="108" viewBox="0 0 168 108" fill="none" xmlns="http://www.w3.org/2000/svg">
<path d="M105.645 14.9676L112.321 0H95.1149L88.3701 14.9676H105.645Z" fill="white"/>
<path d="M140.195 14.9676L146.871 0H129.596L122.92 14.9676H140.195Z" fill="white"/>
<path d="M92.2934 44.9715L98.9694 30.0039H81.6945L75.0186 44.9715H92.2934Z" fill="white"/>
<path d="M126.774 44.9715L133.519 30.0039H116.244L109.568 44.9715H126.774Z" fill="white"/>
<path d="M116.245 30.004L122.921 14.9678H105.646L98.9697 30.004H116.245Z" fill="white"/>
<path d="M161.325 44.9715L168.001 30.0039H150.726L144.05 44.9715H161.325Z" fill="white"/>
<path d="M150.726 30.004L157.47 14.9678H140.195L133.52 30.004H150.726Z" fill="white"/>
<path d="M122.301 67.0112C118.653 67.0798 112.115 67.2858 109.224 67.3545C108.33 67.3545 107.779 67.4231 107.779 67.4231C107.435 67.4231 107.159 67.6977 107.091 67.9037C107.022 68.041 106.953 68.247 106.953 68.247C106.953 68.247 106.884 68.3843 106.884 68.5903C106.815 68.7963 106.884 69.1396 107.159 69.4142C107.159 69.4142 107.572 69.7575 108.33 70.3068C110.601 72.0919 115.763 76.0741 118.722 78.2712C117.621 81.7041 115.831 87.952 115.005 90.767C114.73 91.6596 114.593 92.2089 114.593 92.2089C114.524 92.5522 114.661 92.8955 114.799 93.0328C114.937 93.1701 115.074 93.2388 115.074 93.2388C115.074 93.2388 115.212 93.3074 115.35 93.4447C115.556 93.582 115.9 93.582 116.175 93.4447C116.175 93.4447 116.657 93.1701 117.414 92.6208C119.823 90.973 125.26 87.3341 128.22 85.2057C131.179 87.3341 136.547 90.973 139.025 92.6208C139.782 93.1014 140.264 93.4447 140.264 93.4447C140.539 93.6507 140.952 93.582 141.09 93.4447C141.227 93.3761 141.365 93.2388 141.365 93.2388C141.365 93.2388 141.503 93.1701 141.64 93.0328C141.778 92.8955 141.985 92.5522 141.847 92.2089C141.847 92.2089 141.709 91.6596 141.434 90.767C140.608 87.952 138.819 81.7041 137.717 78.2712C140.608 76.1428 145.77 72.0919 148.11 70.3068C148.867 69.7575 149.28 69.4142 149.28 69.4142C149.555 69.2082 149.624 68.7963 149.555 68.5903C149.486 68.3843 149.486 68.247 149.486 68.247C149.486 68.247 149.418 68.1097 149.349 67.9037C149.28 67.6977 149.005 67.4231 148.661 67.4231C148.661 67.4231 148.11 67.3545 147.215 67.3545C144.325 67.2858 137.786 67.0112 134.139 67.0112C132.969 63.5782 130.766 57.4676 129.734 54.7213C129.39 53.8287 129.183 53.3481 129.183 53.3481C129.046 53.0048 128.701 52.8675 128.495 52.7988C128.289 52.7988 128.151 52.7988 128.151 52.7988C128.151 52.7988 128.013 52.7988 127.807 52.7988C127.6 52.7988 127.256 53.0048 127.119 53.3481C127.119 53.3481 126.912 53.8287 126.568 54.7213C125.673 57.4676 123.402 63.5782 122.301 67.0112Z" fill="white"/>
<path d="M120.443 77.6531L115.763 91.9341V92.0028C115.763 92.0028 115.831 92.0028 115.831 92.0714C115.9 92.0714 115.9 92.1401 115.9 92.1401H115.969L128.151 83.2831L140.333 92.1401H140.402C140.402 92.1401 140.47 92.1401 140.47 92.0714C140.539 92.0714 140.539 92.0028 140.539 92.0028V91.9341L135.859 77.6531L148.041 68.7962V68.7275V68.6588C148.041 68.5902 148.041 68.5902 148.041 68.5902C148.041 68.5902 148.041 68.5215 147.972 68.5215H132.9L128.357 54.2405C128.357 54.2405 128.357 54.1719 128.289 54.1719H128.22C128.151 54.1719 128.151 54.1719 128.151 54.1719C128.151 54.1719 128.082 54.1719 128.082 54.2405L123.402 68.5215H108.33C108.33 68.5215 108.261 68.5215 108.261 68.5902V68.6588C108.261 68.7275 108.261 68.7275 108.261 68.7275V68.7962L120.443 77.6531Z" fill="#E21F26"/>
<path d="M77.8407 70.3748C75.2254 75.5242 72.4036 78.1333 66.2782 78.1333H48.4528L54.9911 63.303H71.5089C76.2578 63.303 78.7354 64.4015 79.0107 66.53C79.0796 67.1479 78.6666 68.4524 77.8407 70.3748ZM99.3827 56.4371C99.2451 55.4073 99.0386 54.652 98.7633 54.1027C96.4921 50.1205 92.3626 48.1294 86.4437 48.1294H61.8047L70.8206 27.8752H41.7768L23.1254 39.6158H48.3151C46.2504 44.4219 44.8051 47.3742 44.2545 48.3354H26.7043C25.8096 48.3354 24.9837 48.2668 24.1578 48.0608C22.3684 47.5802 21.4048 46.6876 21.2672 45.4518C21.1295 44.2159 21.1984 42.9801 21.5425 41.8129C22.1619 39.7531 23.4007 37.0068 25.259 33.5052C30.4208 23.687 33.7932 18.8122 39.6433 18.8122H66.3471L89.5408 3.63867H39.6433C35.6515 3.63867 31.8661 4.39392 28.3561 5.97306C22.6437 8.44477 18.0324 12.9762 15.1418 18.5376C12.733 23.1377 9.63589 29.7976 5.91938 38.5172C2.34052 47.7862 -0.34363 52.3863 0.0693152 55.8879C0.688733 60.8313 4.74936 63.303 12.1824 63.303H38.1979C33.5179 73.4645 26.7731 88.2947 17.9636 107.794V108H34.6879L41.9145 92.8262H68.2053C74.8124 92.8262 80.869 90.3545 86.3749 85.4111C89.8161 81.6348 91.812 77.584 94.0832 72.3659C97.5245 62.4104 99.7268 59.2521 99.3827 56.4371Z" fill="white"/>
</svg>
