<svg width="476" height="168" viewBox="0 0 476 168" fill="none" xmlns="http://www.w3.org/2000/svg">
<g clip-path="url(#clip0_1175_17)">
<path d="M33.2474 165.174H37.4668L36.8848 167.783H29.8281L32.3744 156.839H39.3583L38.7763 159.448H34.5568L34.2658 160.97H37.9761L37.3941 163.579H33.6111L33.2474 165.174Z" fill="white"/>
<path d="M50.5604 167.783H47.4322L46.4137 164.884L44.013 167.783H40.8848L45.468 162.202L43.5765 156.839H46.7047L47.6505 159.593L49.9057 156.839H53.0339L48.5962 162.202L50.5604 167.783Z" fill="white"/>
<path d="M59.5081 168C57.8349 168 56.5981 167.493 55.7979 166.406C54.9977 165.319 54.7794 163.941 55.1432 162.347C55.5069 160.753 56.3799 159.375 57.6894 158.288C58.9989 157.201 60.5266 156.694 62.1271 156.694C63.1456 156.694 63.9459 156.911 64.7461 157.419C65.4736 157.853 65.9828 158.506 66.2738 159.303L63.5094 160.68C63.3639 160.318 63.1456 160.028 62.7819 159.738C62.4181 159.52 61.9816 159.375 61.4724 159.375C60.5994 159.375 59.7991 159.665 59.1444 160.173C58.4896 160.753 58.0531 161.405 57.8349 162.347C57.6166 163.217 57.7621 163.941 58.1259 164.521C58.5624 165.101 59.1444 165.319 60.0174 165.319C60.5266 165.319 61.0359 165.174 61.4724 164.956C61.9089 164.739 62.3454 164.449 62.6364 164.014L64.7461 165.391C64.0913 166.188 63.2911 166.841 62.3454 167.275C61.4724 167.783 60.5266 168 59.5081 168Z" fill="white"/>
<path d="M72.1673 165.174H76.3867L75.732 167.783H68.748L71.2943 156.839H78.2782L77.6235 159.448H73.4768L73.113 160.97H76.896L76.314 163.579H72.531L72.1673 165.174Z" fill="white"/>
<path d="M83.9524 165.101H87.7354L87.0807 167.783H80.5332L83.0794 156.839H85.9167L83.9524 165.101Z" fill="white"/>
<path d="M95.011 165.101H98.7212L98.1392 167.783H91.5918L94.138 156.839H96.9025L95.011 165.101Z" fill="white"/>
<path d="M105.995 165.174H110.215L109.633 167.783H102.576L105.122 156.839H112.106L111.452 159.448H107.305L106.941 160.97H110.724L110.142 163.579H106.359L105.995 165.174Z" fill="white"/>
<path d="M122.946 156.839H125.783L123.164 167.783H121.054L118.435 162.275L117.199 167.783H114.361L116.908 156.839H119.09L121.709 162.347L122.946 156.839Z" fill="white"/>
<path d="M138.442 156.839L137.787 159.593H135.095L133.204 167.783H130.367L132.331 159.593H129.566L130.221 156.839H138.442Z" fill="white"/>
<path d="M151.318 164.449C151.755 165.029 152.409 165.246 153.21 165.246C154.083 165.246 154.81 164.956 155.538 164.449C156.265 163.869 156.702 163.217 156.847 162.347C157.065 161.477 156.92 160.752 156.483 160.245C156.047 159.665 155.392 159.448 154.592 159.448C153.719 159.448 152.991 159.738 152.264 160.245C151.536 160.825 151.1 161.477 150.954 162.347C150.736 163.217 150.882 163.869 151.318 164.449ZM157.065 166.333C155.683 167.42 154.228 168 152.628 168C151.027 168 149.79 167.42 148.917 166.333C148.044 165.246 147.826 163.869 148.19 162.274C148.554 160.68 149.427 159.303 150.809 158.216C152.191 157.129 153.646 156.549 155.247 156.549C156.847 156.549 158.084 157.129 158.957 158.216C159.83 159.303 160.048 160.68 159.684 162.274C159.248 163.941 158.375 165.246 157.065 166.333Z" fill="white"/>
<path d="M176.853 156.839L174.234 167.783H171.47L172.852 161.912L169.214 166.261H168.923L167.25 161.912L165.941 167.783H163.104L165.65 156.839H168.487L170.16 161.55L174.016 156.839H176.853Z" fill="white"/>
<path d="M188.057 156.839H190.822L188.275 167.783H186.093L183.547 162.275L182.237 167.783H179.473L182.019 156.839H184.201L186.748 162.347L188.057 156.839Z" fill="white"/>
<path d="M195.988 156.839H198.825L196.206 167.783H193.441L195.988 156.839Z" fill="white"/>
<path d="M206.608 168C204.935 168 203.698 167.493 202.898 166.406C202.097 165.319 201.879 163.941 202.243 162.347C202.607 160.753 203.48 159.375 204.789 158.288C206.098 157.201 207.626 156.694 209.227 156.694C210.245 156.694 211.045 156.911 211.846 157.419C212.573 157.853 213.082 158.506 213.373 159.303L210.609 160.68C210.463 160.318 210.245 160.028 209.881 159.738C209.518 159.52 209.081 159.375 208.572 159.375C207.699 159.375 206.899 159.665 206.244 160.173C205.589 160.753 205.153 161.405 204.935 162.347C204.716 163.217 204.862 163.941 205.226 164.521C205.662 165.101 206.244 165.319 207.117 165.319C207.626 165.319 208.135 165.174 208.572 164.956C209.008 164.739 209.445 164.449 209.736 164.014L211.846 165.391C211.191 166.188 210.391 166.841 209.445 167.275C208.572 167.783 207.626 168 206.608 168Z" fill="white"/>
<path d="M224.287 156.839H227.051L224.505 167.783H221.74L222.686 163.579H219.631L218.685 167.783H215.848L218.394 156.839H221.231L220.285 160.898H223.341L224.287 156.839Z" fill="white"/>
<path d="M233.89 163.796H236.072L235.854 160.1L233.89 163.796ZM236.509 167.783L236.363 166.188H232.653L231.78 167.783H228.725L234.763 156.911H238.255L239.346 167.783H236.509Z" fill="white"/>
<path d="M252.223 156.839H254.988L252.441 167.783H250.259L247.713 162.275L246.403 167.783H243.639L246.185 156.839H248.367L250.914 162.347L252.223 156.839Z" fill="white"/>
<path d="M266.19 156.839H268.954L266.408 167.783H264.298L261.679 162.275L260.443 167.783H257.605L260.152 156.839H262.334L264.88 162.347L266.19 156.839Z" fill="white"/>
<path d="M274.993 165.174H279.286L278.631 167.783H271.574L274.193 156.839H281.104L280.522 159.448H276.376L276.012 160.97H279.795L279.14 163.579H275.357L274.993 165.174Z" fill="white"/>
<path d="M286.851 165.101H290.634L289.979 167.783H283.432L285.978 156.839H288.742L286.851 165.101Z" fill="white"/>
<path d="M304.82 165.174H309.039L308.457 167.783H301.4L303.947 156.839H310.931L310.349 159.448H306.129L305.838 160.97H309.548L308.966 163.579H305.183L304.82 165.174Z" fill="white"/>
<path d="M322.135 167.783H319.006L317.988 164.884L315.587 167.783H312.459L317.042 162.202L315.151 156.839H318.279L319.225 159.593L321.48 156.839H324.608L320.17 162.202L322.135 167.783Z" fill="white"/>
<path d="M329.919 165.174H334.211L333.557 167.783H326.5L329.119 156.839H336.03L335.448 159.448H331.301L330.938 160.97H334.721L334.066 163.579H330.356L329.919 165.174Z" fill="white"/>
<path d="M343.524 168C341.851 168 340.614 167.493 339.814 166.406C339.013 165.319 338.795 163.941 339.159 162.347C339.523 160.753 340.396 159.375 341.705 158.288C343.015 157.201 344.542 156.694 346.143 156.694C347.161 156.694 347.961 156.911 348.762 157.419C349.489 157.853 349.998 158.506 350.289 159.303L347.525 160.68C347.379 160.318 347.161 160.028 346.797 159.738C346.434 159.52 345.997 159.375 345.488 159.375C344.615 159.375 343.815 159.665 343.16 160.173C342.505 160.753 342.069 161.405 341.851 162.347C341.632 163.217 341.778 163.941 342.142 164.521C342.578 165.101 343.16 165.319 344.033 165.319C344.542 165.319 345.051 165.174 345.488 164.956C345.924 164.739 346.361 164.449 346.652 164.014L348.762 165.391C348.107 166.188 347.307 166.841 346.361 167.275C345.488 167.783 344.47 168 343.524 168Z" fill="white"/>
<path d="M360.255 166.985C359.309 167.71 358.145 168 356.908 168C355.672 168 354.653 167.638 354.071 166.985C353.416 166.261 353.271 165.391 353.489 164.231L355.235 156.911H358L356.326 163.941C356.108 164.884 356.545 165.318 357.563 165.318C358.582 165.318 359.236 164.884 359.382 163.941L361.055 156.911H363.82L362.074 164.231C361.855 165.318 361.273 166.261 360.255 166.985Z" fill="white"/>
<path d="M376.406 156.839L375.751 159.593H373.06L371.168 167.783H368.331L370.295 159.593H367.604L368.186 156.839H376.406Z" fill="white"/>
<path d="M380.843 156.839H383.68L381.134 167.783H378.297L380.843 156.839Z" fill="white"/>
<path d="M390.228 164.449C390.665 165.029 391.319 165.246 392.12 165.246C392.92 165.246 393.72 164.956 394.448 164.449C395.175 163.869 395.612 163.217 395.757 162.347C395.975 161.477 395.83 160.752 395.393 160.245C394.957 159.665 394.302 159.448 393.502 159.448C392.702 159.448 391.901 159.738 391.174 160.245C390.446 160.825 390.01 161.477 389.865 162.347C389.719 163.217 389.792 163.869 390.228 164.449ZM395.975 166.333C394.593 167.42 393.138 168 391.538 168C389.937 168 388.7 167.42 387.827 166.333C386.954 165.246 386.736 163.869 387.1 162.274C387.464 160.68 388.337 159.303 389.719 158.216C391.101 157.129 392.556 156.549 394.157 156.549C395.757 156.549 396.994 157.129 397.867 158.216C398.74 159.303 398.958 160.68 398.594 162.274C398.231 163.941 397.358 165.246 395.975 166.333Z" fill="white"/>
<path d="M410.67 156.839H413.435L410.889 167.783H408.706L406.16 162.275L404.85 167.783H402.086L404.632 156.839H406.815L409.361 162.347L410.67 156.839Z" fill="white"/>
<path d="M99.8851 25.6564C97.1933 25.6564 95.1563 24.7867 93.7741 22.9748C92.3919 21.1629 92.0281 18.9161 92.6829 16.307C93.3376 13.6253 94.7199 11.3786 96.9023 9.63914C99.0848 7.82723 101.558 6.95752 104.25 6.95752C105.851 6.95752 107.306 7.3199 108.542 8.11714C109.779 8.91438 110.579 9.92905 111.088 11.2336L106.578 13.5529C106.36 12.9006 105.996 12.3932 105.414 12.0309C104.832 11.6685 104.105 11.451 103.232 11.451C101.777 11.451 100.54 11.8859 99.4486 12.8281C98.3573 13.6978 97.6298 14.9299 97.2661 16.3794C96.9023 17.829 97.1206 18.9886 97.7753 19.9308C98.4301 20.8005 99.5213 21.3078 100.976 21.3078C101.849 21.3078 102.65 21.0904 103.377 20.728C104.177 20.3656 104.759 19.8583 105.269 19.206L108.761 21.5253C107.669 22.8298 106.36 23.917 104.759 24.6417C103.159 25.294 101.558 25.6564 99.8851 25.6564Z" fill="white"/>
<path d="M129.057 7.24756H133.713L129.421 25.2942H124.838L126.511 18.3364H121.419L119.745 25.2942H115.162L119.382 7.24756H123.965L122.437 13.9154H127.53L129.057 7.24756Z" fill="white"/>
<path d="M144.991 18.6988H148.628L148.264 12.6108L144.991 18.6988ZM149.283 25.2942L148.992 22.685H142.808L141.426 25.2942H136.406L146.446 7.24756H152.266L154.012 25.2217H149.283V25.2942Z" fill="white"/>
<path d="M183.692 7.24756L179.4 25.2942H174.817L177.145 15.5823L171.034 22.83H170.597L167.905 15.5823L165.65 25.2942H160.994L165.214 7.24756H169.87L172.634 14.93L179.036 7.24756H183.692Z" fill="white"/>
<path d="M197.296 15.5101C197.806 15.5101 198.315 15.3651 198.751 15.0027C199.188 14.6403 199.479 14.2055 199.624 13.6257C199.77 13.0459 199.697 12.611 199.406 12.2486C199.115 11.8863 198.751 11.7413 198.242 11.7413H195.841L194.968 15.5825H197.296V15.5101ZM199.261 7.24777C201.079 7.24777 202.462 7.82758 203.407 8.9872C204.353 10.1468 204.644 11.6688 204.208 13.4807C203.771 15.2926 202.825 16.8146 201.298 17.9743C199.77 19.1339 198.097 19.7137 196.278 19.7137H193.877L192.64 25.1494H187.984L192.204 7.17529H199.261V7.24777Z" fill="white"/>
<path d="M213.157 7.24756H217.813L213.593 25.2942H208.938L213.157 7.24756Z" fill="white"/>
<path d="M228.651 19.786C229.379 20.7282 230.397 21.1631 231.78 21.1631C233.162 21.1631 234.471 20.7282 235.563 19.786C236.727 18.8438 237.454 17.6842 237.745 16.3072C238.109 14.8576 237.891 13.698 237.163 12.8283C236.436 11.8861 235.417 11.4513 234.035 11.4513C232.653 11.4513 231.343 11.8861 230.252 12.8283C229.088 13.7705 228.36 14.9301 227.997 16.3072C227.778 17.6842 227.924 18.8438 228.651 19.786ZM238.109 22.9025C235.854 24.7144 233.38 25.5841 230.761 25.5841C228.142 25.5841 226.105 24.7144 224.65 22.9025C223.268 21.0906 222.831 18.8438 223.486 16.2347C224.141 13.6255 225.523 11.3788 227.778 9.56688C230.034 7.75497 232.507 6.88525 235.126 6.88525C237.745 6.88525 239.782 7.75497 241.237 9.56688C242.619 11.3788 243.056 13.6255 242.401 16.2347C241.819 18.9163 240.364 21.0906 238.109 22.9025Z" fill="white"/>
<path d="M262.335 7.24756H266.918L262.698 25.2942H259.134L254.914 16.2346L252.804 25.2942H248.148L252.368 7.24756H256.005L260.225 16.3071L262.335 7.24756Z" fill="white"/>
<path d="M277.321 25.6565C275.43 25.6565 273.902 25.2217 272.884 24.4244C271.792 23.6272 271.21 22.5401 270.992 21.163L275.503 18.8438C275.794 20.4383 276.812 21.2355 278.485 21.2355C279.868 21.2355 280.668 20.8006 280.886 20.0034C281.032 19.4961 280.668 19.0612 279.94 18.6988C279.649 18.5539 278.922 18.3364 277.831 17.9741C276.303 17.4667 275.139 16.8144 274.411 15.9447C273.684 15.075 273.466 13.8429 273.829 12.3209C274.193 10.654 275.139 9.2769 276.594 8.26224C278.049 7.24757 279.649 6.74023 281.468 6.74023C282.996 6.74023 284.233 7.10262 285.251 7.82738C286.27 8.55214 286.924 9.56681 287.215 10.8714L282.778 13.1181C282.559 11.8136 281.759 11.0888 280.45 11.0888C279.868 11.0888 279.431 11.2338 279.14 11.4512C278.776 11.6686 278.558 11.9585 278.485 12.3209C278.413 12.6833 278.558 13.0457 278.849 13.3356C279.213 13.6255 279.94 13.9154 281.104 14.2778C281.905 14.5677 282.559 14.8576 283.069 15.0025C283.578 15.22 284.087 15.5099 284.596 15.9447C285.106 16.3796 285.469 16.8869 285.615 17.5392C285.76 18.1915 285.76 18.9887 285.542 19.8584C285.106 21.5979 284.16 22.9749 282.705 23.9896C281.177 25.1492 279.431 25.6565 277.321 25.6565Z" fill="white"/>
<path d="M305.62 7.24756H310.203L305.984 25.2942H301.401L303.001 18.3364H297.909L296.308 25.2942H291.652L295.872 7.24756H300.528L298.927 13.9154H304.02L305.62 7.24756Z" fill="white"/>
<path d="M318.716 7.24756H323.372L319.152 25.2942H314.496L318.716 7.24756Z" fill="white"/>
<path d="M336.976 15.5101C337.485 15.5101 337.995 15.3651 338.431 15.0027C338.868 14.6403 339.158 14.2055 339.304 13.6257C339.449 13.0459 339.377 12.611 339.086 12.2486C338.795 11.8863 338.431 11.7413 337.922 11.7413H335.521L334.648 15.5825H336.976V15.5101ZM338.94 7.24777C340.759 7.24777 342.141 7.82758 343.087 8.9872C344.033 10.1468 344.324 11.6688 343.887 13.4807C343.451 15.2926 342.505 16.8146 340.977 17.9743C339.449 19.1339 337.776 19.7137 335.958 19.7137H333.557L332.32 25.1494H327.664L331.884 7.17529H338.94V7.24777Z" fill="white"/>
<path d="M359.311 25.2944L360.111 21.9605L367.604 15.6551C368.331 15.0028 368.913 14.4955 369.277 14.0606C369.641 13.6258 369.859 13.2634 370.005 12.901C370.077 12.4661 370.077 12.1038 369.859 11.8139C369.641 11.5239 369.277 11.379 368.768 11.379C367.677 11.379 366.731 12.0313 365.931 13.2634L362.439 11.0166C363.312 9.63956 364.476 8.6249 365.713 7.90013C367.022 7.17537 368.331 6.81299 369.714 6.81299C371.46 6.81299 372.769 7.32032 373.788 8.33499C374.806 9.34966 375.097 10.7267 374.661 12.5386C374.442 13.5533 373.933 14.5679 373.278 15.4377C372.551 16.3074 371.678 17.2496 370.441 18.1918L367.386 20.7284H373.06L372.042 25.1495H359.311V25.2944Z" fill="white"/>
<path d="M385.5 16.2345C384.699 19.4959 385.281 21.1629 387.246 21.1629C389.137 21.1629 390.519 19.4959 391.247 16.2345C392.047 12.973 391.465 11.3061 389.501 11.3061C387.609 11.3786 386.3 12.973 385.5 16.2345ZM392.265 23.1197C390.519 24.8592 388.482 25.6564 386.154 25.6564C383.826 25.6564 382.153 24.7867 381.207 23.1197C380.262 21.3803 380.189 19.1335 380.844 16.307C381.498 13.4804 382.735 11.1611 384.408 9.49419C386.154 7.75476 388.191 6.95752 390.519 6.95752C392.847 6.95752 394.52 7.82723 395.466 9.49419C396.412 11.2336 396.485 13.4804 395.83 16.307C395.175 19.1335 394.011 21.3803 392.265 23.1197Z" fill="white"/>
<path d="M400.195 25.2944L400.996 21.9605L408.489 15.6551C409.216 15.0028 409.798 14.4955 410.162 14.0606C410.526 13.6258 410.744 13.2634 410.889 12.901C410.962 12.4661 410.962 12.1038 410.744 11.8139C410.526 11.5239 410.162 11.379 409.653 11.379C408.562 11.379 407.616 12.0313 406.816 13.2634L403.324 11.0166C404.197 9.63956 405.361 8.6249 406.597 7.90013C407.907 7.17537 409.216 6.81299 410.599 6.81299C412.345 6.81299 413.654 7.32032 414.672 8.33499C415.691 9.34966 415.982 10.7267 415.545 12.5386C415.327 13.5533 414.818 14.5679 414.163 15.4377C413.436 16.3074 412.563 17.2496 411.326 18.1918L408.271 20.7284H413.945L412.926 25.1495H400.195V25.2944Z" fill="white"/>
<path d="M431.331 14.5679C432.423 14.9303 433.15 15.5101 433.659 16.4523C434.169 17.322 434.241 18.4092 433.95 19.6413C433.514 21.5981 432.495 23.0477 430.968 24.1348C429.44 25.1495 427.767 25.7293 425.875 25.7293C424.347 25.7293 423.111 25.3669 422.092 24.7146C421.074 24.0623 420.492 23.0477 420.273 21.6706L424.857 19.3514C424.929 20.5835 425.657 21.2358 426.894 21.2358C427.548 21.2358 428.058 21.0908 428.494 20.8009C428.931 20.511 429.222 20.0761 429.294 19.5688C429.44 19.0615 429.367 18.6266 429.076 18.3367C428.785 18.0468 428.349 17.9018 427.694 17.9018H426.748L425.584 15.2927L429.294 11.7414H423.256L424.275 7.32031H435.987L435.114 10.9441L431.331 14.5679Z" fill="white"/>
<path d="M190.967 65.301H65.3281L80.3145 32.9766H205.953L190.967 65.301Z" fill="white"/>
<path d="M154.884 142.126H29.2461L44.2325 109.802H169.871L154.884 142.126Z" fill="white"/>
<path d="M125.638 103.714H0L14.9864 71.3892H140.625L125.638 103.714Z" fill="white"/>
<path d="M222.249 109.801L242.474 65.301H277.903L257.678 109.801H222.249ZM211.555 32.9766L161.867 142.198H288.524L338.212 32.9766H211.555Z" fill="white"/>
<path d="M381.716 103.714H260.516L275.211 71.3892H396.703L381.716 103.714Z" fill="white"/>
<path d="M421.002 142.126H295.363L310.277 109.802H435.988L421.002 142.126Z" fill="white"/>
<path d="M455.994 65.301H330.355L345.269 32.9766H470.98L455.994 65.301Z" fill="white"/>
<path d="M457.521 9.56687C455.047 9.56687 450.682 9.71182 448.718 9.7843C448.063 9.7843 447.7 9.85677 447.7 9.85677C447.481 9.85677 447.263 10.0742 447.19 10.1467C447.118 10.2916 447.118 10.3641 447.118 10.3641C447.118 10.3641 447.045 10.4366 447.045 10.5815C447.045 10.7265 447.045 10.9439 447.263 11.0889C447.263 11.0889 447.554 11.3063 448.063 11.7412C449.591 12.9733 453.083 15.6549 455.047 17.1044C454.32 19.4236 453.083 23.6273 452.574 25.5116C452.428 26.0915 452.283 26.4538 452.283 26.4538C452.21 26.6713 452.356 26.8887 452.428 27.0336C452.501 27.1061 452.574 27.1786 452.574 27.1786C452.574 27.1786 452.647 27.2511 452.792 27.3236C452.938 27.396 453.156 27.4685 453.374 27.3236C453.374 27.3236 453.665 27.1061 454.174 26.8162C455.775 25.7291 459.485 23.2649 461.449 21.8154C463.414 23.2649 467.124 25.7291 468.724 26.8162C469.234 27.1786 469.525 27.3236 469.525 27.3236C469.743 27.4685 469.961 27.396 470.107 27.3236C470.179 27.2511 470.325 27.1786 470.325 27.1786C470.325 27.1786 470.398 27.1061 470.47 27.0336C470.616 26.9612 470.689 26.7437 470.616 26.4538C470.616 26.4538 470.543 26.0915 470.325 25.5116C469.743 23.6273 468.579 19.4236 467.851 17.1044C469.816 15.6549 473.308 12.9733 474.835 11.7412C475.344 11.3788 475.635 11.0889 475.635 11.0889C475.854 10.9439 475.854 10.7265 475.854 10.5815C475.854 10.4366 475.781 10.3641 475.781 10.3641C475.781 10.3641 475.781 10.2916 475.708 10.1467C475.635 10.0017 475.49 9.85677 475.199 9.85677C475.199 9.85677 474.835 9.85677 474.18 9.7843C472.216 9.71182 467.779 9.56687 465.378 9.56687C464.578 7.24763 463.123 3.11648 462.395 1.30457C462.177 0.724763 462.031 0.362381 462.031 0.362381C461.959 0.144953 461.74 0 461.595 0C461.449 0 461.377 0 461.377 0C461.377 0 461.304 0 461.158 0C461.013 0 460.795 0.144953 460.722 0.362381C460.722 0.362381 460.576 0.724763 460.358 1.30457C459.849 3.11648 458.321 7.24763 457.521 9.56687Z" fill="white"/>
</g>
<defs>
<clipPath id="clip0_1175_17">
<rect width="476" height="168" fill="white"/>
</clipPath>
</defs>
</svg>
